<svg width="100" height="100" viewBox="0 0 100 100" fill="none" xmlns="http://www.w3.org/2000/svg">
<rect width="100" height="100" rx="50" fill="white"/>
<path d="M45.4849 70.9996V31.6396H49.8049V67.3517H60.1729V31.6396H64.4929V67.3517H74.8609V31.6396H79.2289V70.9996H45.4849Z" fill="#1A4FD5"/>
<path d="M29.0479 70.9996H20.3599V31.6396H29.0479C35.4799 31.6396 39.5119 35.8156 39.5119 41.9597C39.5119 46.2796 37.3519 49.3516 34.3279 50.4556C38.2639 51.8476 40.7599 55.2556 40.7599 59.7676C40.7599 66.7756 36.2959 70.9996 29.0479 70.9996ZM29.0479 52.4717H24.6799V67.3517H29.0479C34.1359 67.3517 36.1039 65.9116 36.1039 59.7676C36.1039 53.9596 34.1359 52.4717 29.0479 52.4717ZM29.0479 35.2877H24.6799V48.8237H29.0479C33.5119 48.8237 34.8559 46.9997 34.8559 41.9597C34.8559 36.9676 33.5119 35.2877 29.0479 35.2877Z" fill="black"/>
</svg>
